<svg class="icon" viewBox="0 0 1024 1024" xmlns="http://www.w3.org/2000/svg" width="28" height="28"><path d="M510.839 812.698c-167.184 0-301.86-136.997-301.86-301.859s134.676-301.86 301.86-301.86 301.86 132.354 301.86 301.86-134.676 301.86-301.86 301.86zm0 0c-167.184 0-301.86-136.997-301.86-301.859s134.676-301.86 301.86-301.86 301.86 132.354 301.86 301.86-134.676 301.86-301.86 301.86zm-383.13-299.537c0-2.322 0-2.322 0 0 0-16.254 2.323-32.508 2.323-48.762h-92.88C18.576 464.4 0 482.975 0 501.551v16.254c0 20.898 18.576 39.474 37.152 39.474h92.88c-2.322-13.932-2.322-30.186-2.322-44.118zm83.593-239.166a400.213 400.213 0 0 1 62.693-62.693l-32.507-32.508c-11.61-16.254-37.152-16.254-53.406 0l-9.288 9.288c-16.254 13.932-16.254 39.474 0 53.406l32.508 32.507zm601.396 0l30.186-34.83c16.254-11.61 16.254-37.151 0-53.405l-11.61-11.61c-11.61-16.254-37.152-16.254-53.406 0l-32.507 32.508c23.22 20.898 46.44 41.796 67.337 67.337zM510.84 127.71c16.254 0 30.186 2.322 46.44 2.322v-92.88C557.279 18.576 538.703 0 520.127 0h-16.254c-20.898 0-39.474 18.576-39.474 37.152v95.202c16.254-2.322 30.186-4.644 46.44-4.644zM982.204 464.4h-90.558c2.322 16.253 2.322 30.185 2.322 46.439s0 30.186-2.322 44.118h90.558c20.898 0 39.474-18.576 39.474-39.474v-16.254c0-16.254-18.576-34.83-39.474-34.83zM211.302 750.004l-30.186 32.507c-16.254 11.61-16.254 37.152 0 53.406l11.61 11.61c11.61 16.254 37.152 16.254 53.406 0l32.507-32.508c-25.541-18.576-48.761-39.474-67.337-65.015zm603.718-4.644c-18.576 25.541-41.796 48.761-67.337 67.337l32.507 32.508c11.61 16.254 37.152 16.254 53.406 0l13.932-13.932c16.254-11.61 16.254-37.152 0-53.406l-32.508-32.507zM510.84 893.968c-13.932 0-30.186 0-44.118-2.322v92.88c0 20.898 16.254 39.474 37.152 39.474h16.254c18.576 0 37.152-18.576 37.152-39.474v-92.88c-16.254 2.322-30.186 2.322-46.44 2.322z" fill="#c2c6cd"/></svg>